<svg width="21" height="21" viewBox="0 0 21 21" fill="none" xmlns="http://www.w3.org/2000/svg">
<path id="Vector" d="M10.1561 0C4.57025 0 0 4.57025 0 10.1561C0 15.742 4.57025 20.3122 10.1561 20.3122C15.742 20.3122 20.3122 15.742 20.3122 10.1561C20.3122 4.57025 15.742 0 10.1561 0ZM10.1561 2.53903C14.3709 2.53903 17.7732 5.94133 17.7732 10.1561C17.7732 14.3709 14.3709 17.7732 10.1561 17.7732C5.94133 17.7732 2.53903 14.3709 2.53903 10.1561C2.53903 5.94133 5.94133 2.53903 10.1561 2.53903ZM8.8866 5.07806V10.7147L9.29285 11.0448L10.5624 12.3143L11.4256 13.2791L13.2537 11.451L12.2889 10.5878L11.4256 9.72448V5.12884H8.8866V5.07806Z" fill="black"/>
</svg>
