<svg width="15" height="14" viewBox="0 0 15 14" fill="none" xmlns="http://www.w3.org/2000/svg">
<g id="Distance icon">
<path id="&#60;Path&#62;" d="M2.56227 10.1148C3.10505 10.1148 3.54507 9.67475 3.54507 9.13197C3.54507 8.58918 3.10505 8.14917 2.56227 8.14917C2.01948 8.14917 1.57947 8.58918 1.57947 9.13197C1.57947 9.67475 2.01948 10.1148 2.56227 10.1148Z" fill="black"/>
<path id="&#60;Compound Path&#62;" d="M2.39805 12.807C2.41927 12.8292 2.44477 12.8468 2.473 12.8589C2.50123 12.8709 2.53161 12.8772 2.56231 12.8772C2.59301 12.8772 2.62339 12.8709 2.65162 12.8589C2.67985 12.8468 2.70535 12.8292 2.72657 12.807L4.36111 11.0999C5.34238 10.0789 5.34275 8.4101 4.36188 7.37971C4.13115 7.13387 3.85248 6.93791 3.54308 6.80393C3.23369 6.66994 2.90011 6.60078 2.56295 6.60071C2.22579 6.60063 1.89219 6.66965 1.58273 6.80349C1.27327 6.93734 0.99452 7.13317 0.763677 7.37892C-0.217701 8.39992 -0.218042 10.0687 0.763279 11.0996L2.39805 12.807ZM2.5623 7.69428C2.84663 7.69428 3.12459 7.77859 3.36101 7.93655C3.59743 8.09452 3.7817 8.31904 3.89051 8.58173C3.99933 8.84442 4.0278 9.13349 3.97233 9.41236C3.91686 9.69123 3.77995 9.9474 3.57889 10.1485C3.37784 10.3495 3.12168 10.4864 2.8428 10.5419C2.56393 10.5974 2.27487 10.5689 2.01217 10.4601C1.74948 10.3513 1.52495 10.167 1.36698 9.93062C1.20901 9.6942 1.1247 9.41625 1.1247 9.13191C1.12513 8.75076 1.27672 8.38535 1.54623 8.11584C1.81574 7.84632 2.18115 7.69472 2.5623 7.69428Z" fill="black"/>
<path id="&#60;Path&#62;_2" d="M11.4752 3.54226C12.018 3.54226 12.458 3.10224 12.458 2.55946C12.458 2.01667 12.018 1.57666 11.4752 1.57666C10.9324 1.57666 10.4924 2.01667 10.4924 2.55946C10.4924 3.10224 10.9324 3.54226 11.4752 3.54226Z" fill="black"/>
<path id="&#60;Compound Path&#62;_2" d="M11.4753 0.0283206C11.1382 0.0281708 10.8047 0.0971534 10.4953 0.231005C10.1859 0.364857 9.90725 0.560735 9.67657 0.806532C8.69527 1.82748 8.69493 3.49633 9.67625 4.5272L11.311 6.23462C11.3322 6.2568 11.3577 6.27444 11.386 6.2865C11.4142 6.29855 11.4446 6.30477 11.4753 6.30477C11.506 6.30477 11.5364 6.29855 11.5646 6.2865C11.5928 6.27444 11.6183 6.2568 11.6395 6.23462L13.2741 4.52751C14.2554 3.50659 14.2557 1.83774 13.2749 0.807356C13.0441 0.561333 12.7654 0.365261 12.4558 0.231264C12.1463 0.0972675 11.8126 0.0281957 11.4753 0.0283206ZM11.4753 3.99715C11.191 3.99716 10.913 3.91285 10.6766 3.75488C10.4402 3.59692 10.2559 3.37239 10.1471 3.1097C10.0383 2.84701 10.0098 2.55795 10.0653 2.27908C10.1207 2.0002 10.2577 1.74404 10.4587 1.54298C10.6598 1.34192 10.9159 1.205 11.1948 1.14952C11.4737 1.09405 11.7627 1.12252 12.0254 1.23133C12.2881 1.34014 12.5126 1.5244 12.6706 1.76082C12.8286 1.99724 12.9129 2.27519 12.9129 2.55953C12.9125 2.94067 12.7609 3.30608 12.4914 3.5756C12.2219 3.84511 11.8564 3.99672 11.4753 3.99715Z" fill="black"/>
<path id="&#60;Path&#62;_3" d="M2.52734 13.4884C2.5275 13.6241 2.58146 13.7541 2.67739 13.85C2.77331 13.946 2.90337 13.9999 3.03903 14.0001H5.19946C6.73559 14.0001 7.98528 12.7362 7.98528 11.2V9.12488C7.98528 8.15306 8.77592 7.37664 9.74775 7.37664H10.9132C11.0489 7.37664 11.1791 7.32273 11.2751 7.22677C11.371 7.13081 11.4249 7.00066 11.4249 6.86495C11.4249 6.72925 11.371 6.5991 11.2751 6.50314C11.1791 6.40718 11.0489 6.35327 10.9132 6.35327H9.74775C8.21162 6.35327 6.96192 7.58876 6.96192 9.12488V11.2C6.96192 12.1719 6.17129 12.9767 5.19946 12.9767H3.03903C2.90337 12.9769 2.77331 13.0308 2.67739 13.1268C2.58146 13.2227 2.5275 13.3527 2.52734 13.4884Z" fill="black"/>
</g>
</svg>
