<svg width="18" height="25" viewBox="0 0 18 25" fill="none" xmlns="http://www.w3.org/2000/svg">
<path id="Vector" d="M9 0C4.02429 0 0 4.019 0 8.98819C0 14.3426 5.68286 21.7257 8.02286 24.5378C8.53714 25.1541 9.47571 25.1541 9.99 24.5378C12.3171 21.7257 18 14.3426 18 8.98819C18 4.019 13.9757 0 9 0ZM9 12.1983C7.22571 12.1983 5.78571 10.7601 5.78571 8.98819C5.78571 7.21623 7.22571 5.77812 9 5.77812C10.7743 5.77812 12.2143 7.21623 12.2143 8.98819C12.2143 10.7601 10.7743 12.1983 9 12.1983Z" fill="black"/>
</svg>
