<svg width="22" height="23" viewBox="0 0 22 23" fill="none" xmlns="http://www.w3.org/2000/svg">
<path id="Vector" d="M16.6439 14.4759L14.8039 15.557C14.5831 15.6867 14.3277 15.7374 14.0766 15.7014C13.8256 15.6655 13.5927 15.5448 13.4136 15.3579L7.27233 8.95267C7.09322 8.76576 6.97761 8.5229 6.94314 8.2611C6.90867 7.9993 6.95721 7.73293 7.08137 7.50258L8.11797 5.58349C8.30456 5.2381 8.37762 4.83849 8.32597 4.44572C8.27433 4.05295 8.10083 3.68861 7.83198 3.40835L5.07418 0.532025C4.91254 0.363358 4.72062 0.229559 4.50939 0.138272C4.29816 0.0469854 4.07175 0 3.84311 0C3.61446 0 3.38806 0.0469854 3.17682 0.138272C2.96559 0.229559 2.77368 0.363358 2.61204 0.532025L1.35985 1.83711C0.627609 2.60081 0.161186 3.59791 0.0347453 4.66986C-0.0916952 5.74182 0.129106 6.8271 0.662039 7.75313L1.29033 8.84529C4.49889 14.4226 9.02767 19.0464 14.4423 22.2733L14.5663 22.3477C16.416 23.4499 18.7013 23.1287 20.1823 21.585L21.4899 20.2212C21.6516 20.0526 21.7799 19.8524 21.8674 19.6321C21.955 19.4118 22 19.1757 22 18.9372C22 18.6987 21.955 18.4626 21.8674 18.2423C21.7799 18.022 21.6516 17.8218 21.4899 17.6532L18.7303 14.7751C18.4617 14.4943 18.1122 14.3131 17.7354 14.259C17.3587 14.205 16.9753 14.2812 16.6439 14.4759Z" fill="black"/>
</svg>
