<svg xmlns="http://www.w3.org/2000/svg" width="60" height="60" xml:space="preserve"><path d="M49.8 15.2c-.2-.6-.5-1.3-.7-1.9-.1-.2-.2-.4-.2-.5C44.9 3.6 36.4.2 29.7.2 20.8.2 10.6 6.1 9.3 19v2.5c0 .1 0 1.1.1 1.6.6 4.7 3.6 9.6 6.6 14.4.7 1.2 1.5 2.4 2.2 3.6 3.1 5.3 6.4 10.5 9.5 15.6l1.7 2.7c.1.2.4.4.6.4.3 0 .5-.1.6-.4 1.1-1.9 2.2-3.7 3.2-5.6 1.2-2.1 2.4-4.2 3.7-6.3.4-.7.8-1.3 1.1-2 .3-.5.6-.9.8-1.4.2-.3.4-.6.7-1l.9-1.2c1-1.8 2.2-3.7 3.3-5.5 3.1-4.9 6.3-9.9 6.3-15v-2.7c.1-.4-.2-1.6-.8-3.5zm-.6 6.4c0 4.6-3.1 9.5-6.1 14.2-1.2 1.8-2.4 3.7-3.4 5.6-.1.3-.4.6-.7.9l-.9 1.2c-.3.4-.5.9-.8 1.4-.4.7-.8 1.3-1.2 2-1.2 2.1-2.4 4.2-3.7 6.3-.9 1.5-1.7 3-2.6 4.5l-1-1.7c-3.1-5.1-6.4-10.3-9.5-15.6-.7-1.2-1.4-2.4-2.2-3.6-2.9-4.6-5.8-9.4-6.4-13.8 0-.4-.1-1.3-.1-1.4v-2.4C12 7.2 21.5 1.8 29.7 1.8c6.2 0 14.1 3.1 17.7 11.7l.3.6c.2.6.5 1.1.6 1.6v.1c.7 2 .9 2.9.9 3.1v2.7z"/><path d="M30.1 12.3c-4 0-8 2.5-8 7.3v1.6c0 .6 0 1.5.2 2.1 1.9 4.8 5.9 5.3 7.5 5.3 4.6 0 8.3-3.7 8.3-8.2.1-4.5-3.5-8.1-8-8.1zm-.2 14.8c-1.3 0-4.5-.4-6.1-4.4-.1-.3-.2-.8-.1-1.5v-1.6c0-4 3.3-5.8 6.5-5.8 3.7 0 6.6 2.9 6.6 6.7-.1 3.6-3.2 6.6-6.9 6.6z"/></svg>